<svg version="1.1" xmlns="http://www.w3.org/2000/svg" xmlns:xlink="http://www.w3.org/1999/xlink" width="500" height="500"><defs><clipPath id="xFORqzEPvsTP"><path fill="none" stroke="none" d="M 5.5 5.5 L 470.5 5.5 L 470.5 476.5 L 5.5 476.5 L 5.5 5.5"/></clipPath><clipPath id="qmpWKQZTQFRG"><path fill="none" stroke="none" d="M 5.5 5.5 L 470.5 5.5 L 470.5 476.5 L 5.5 476.5 L 5.5 5.5"/></clipPath><clipPath id="CBLJBrZRnNnW"><path fill="none" stroke="none" d="M 5.5 5.5 L 470.5 5.5 L 470.5 476.5 L 5.5 476.5 L 5.5 5.5"/></clipPath><clipPath id="kNoKnygTpJmd"><path fill="none" stroke="none" d="M 5.5 5.5 L 470.5 5.5 L 470.5 476.5 L 5.5 476.5 L 5.5 5.5"/></clipPath><clipPath id="OkCfsyikwSWb"><path fill="none" stroke="none" d="M 5.5 5.5 L 470.5 5.5 L 470.5 476.5 L 5.5 476.5 L 5.5 5.5"/></clipPath><clipPath id="VRTfFKOkCXhT"><path fill="none" stroke="none" d="M 5.5 5.5 L 470.5 5.5 L 470.5 476.5 L 5.5 476.5 L 5.5 5.5"/></clipPath><clipPath id="HLhVsElwxGyt"><path fill="none" stroke="none" d="M 5.5 5.5 L 470.5 5.5 L 470.5 476.5 L 5.5 476.5 L 5.5 5.5"/></clipPath><clipPath id="UXyLHkPPJSks"><path fill="none" stroke="none" d="M 5.5 5.5 L 470.5 5.5 L 470.5 476.5 L 5.5 476.5 L 5.5 5.5"/></clipPath><clipPath id="dBChehwZCQwm"><path fill="none" stroke="none" d="M 5.5 5.5 L 470.5 5.5 L 470.5 476.5 L 5.5 476.5 L 5.5 5.5"/></clipPath><clipPath id="hkMgwokxCxXD"><path fill="none" stroke="none" d="M 5.5 5.5 L 470.5 5.5 L 470.5 476.5 L 5.5 476.5 L 5.5 5.5"/></clipPath><clipPath id="HsaUGEbQeCJE"><path fill="none" stroke="none" d="M 5.5 5.5 L 470.5 5.5 L 470.5 476.5 L 5.5 476.5 L 5.5 5.5"/></clipPath><clipPath id="UVmdCUtLvaBX"><path fill="none" stroke="none" d="M 5.5 5.5 L 470.5 5.5 L 470.5 476.5 L 5.5 476.5 L 5.5 5.5"/></clipPath></defs><path fill="rgb(255,255,255)" stroke="none" paint-order="stroke" d="M 0.5 0.5 L 500.5 0.5 L 500.5 500.5 L 0.5 500.5 L 0.5 0.5" fill-opacity="1"/><rect fill="#FFFFFF" stroke="none" x="5" y="5" width="465" height="471" transform="matrix(1, 0, 0, 1, 0.5, 0.5)"/><path fill="rgb(255,255,255)" stroke="none" paint-order="stroke" d="M 5.5 5.5 L 470.5 5.5 L 470.5 476.5 L 5.5 476.5 L 5.5 5.5" fill-opacity="1"/><path fill="none" stroke="rgb(229,229,229)" paint-order="fill" d="M 5.5 5.5 L 470.5 5.5 L 470.5 476.5 L 5.5 476.5 L 5.5 5.5" stroke-opacity="1" stroke-linejoin="bevel" stroke-miterlimit="10" stroke-dasharray=""/><path fill="none" stroke="rgb(229,229,229)" paint-order="fill" d="M 15.5 476.5 L 15.5 5.5 M 113.5 476.5 L 113.5 5.5 M 210.5 476.5 L 210.5 5.5 M 308.5 476.5 L 308.5 5.5 M 406.5 476.5 L 406.5 5.5" stroke-opacity="1" stroke-linejoin="bevel" stroke-miterlimit="10" stroke-dasharray="" clip-path="url(#xFORqzEPvsTP)"/><path fill="none" stroke="rgb(229,229,229)" paint-order="fill" d="M 5.5 455.5 L 470.5 455.5 M 5.5 348.5 L 470.5 348.5 M 5.5 241.5 L 470.5 241.5 M 5.5 133.5 L 470.5 133.5 M 5.5 26.5 L 470.5 26.5" stroke-opacity="1" stroke-linejoin="bevel" stroke-miterlimit="10" stroke-dasharray="" clip-path="url(#qmpWKQZTQFRG)"/><path fill="none" stroke="none"/><text fill="rgb(68,68,68)" stroke="none" font-family="helvetica" font-size="7pt" font-style="normal" font-weight="normal" text-decoration="normal" x="0" y="0" text-anchor="start" dominant-baseline="text-after-edge" transform="matrix(1, 0, 0, 1, 441.60400390625, 455.0909118652344)" fill-opacity="1">E</text><path fill="none" stroke="none"/><text fill="rgb(68,68,68)" stroke="none" font-family="helvetica" font-size="7pt" font-style="normal" font-weight="normal" text-decoration="normal" x="0" y="0" text-anchor="start" dominant-baseline="text-after-edge" transform="matrix(1, 0, 0, 1, 410.8632507324219, 348.0454406738281)" fill-opacity="1">A</text><path fill="none" stroke="none"/><text fill="rgb(68,68,68)" stroke="none" font-family="helvetica" font-size="7pt" font-style="normal" font-weight="normal" text-decoration="normal" x="0" y="0" text-anchor="start" dominant-baseline="text-after-edge" transform="matrix(1, 0, 0, 1, 466.5741271972656, 241)" fill-opacity="1">B</text><path fill="none" stroke="none"/><text fill="rgb(68,68,68)" stroke="none" font-family="helvetica" font-size="7pt" font-style="normal" font-weight="normal" text-decoration="normal" x="0" y="0" text-anchor="start" dominant-baseline="text-after-edge" transform="matrix(1, 0, 0, 1, 399.8893127441406, 133.9545440673828)" fill-opacity="1">C</text><path fill="none" stroke="none"/><text fill="rgb(68,68,68)" stroke="none" font-family="helvetica" font-size="7pt" font-style="normal" font-weight="normal" text-decoration="normal" x="0" y="0" text-anchor="start" dominant-baseline="text-after-edge" transform="matrix(1, 0, 0, 1, 437.79931640625, 26.909090042114258)" fill-opacity="1">D</text><path fill="none" stroke="none"/><text fill="rgb(68,68,68)" stroke="none" font-family="helvetica" font-size="6pt" font-style="normal" font-weight="normal" text-decoration="normal" x="0" y="0" text-anchor="start" dominant-baseline="text-after-edge" transform="matrix(1, 0, 0, 1, 441.60400390625, 469.0909118652344)" fill-opacity="1">0.43077</text><path fill="none" stroke="none"/><text fill="rgb(68,68,68)" stroke="none" font-family="helvetica" font-size="6pt" font-style="normal" font-weight="normal" text-decoration="normal" x="0" y="0" text-anchor="start" dominant-baseline="text-after-edge" transform="matrix(1, 0, 0, 1, 410.8632507324219, 362.0454406738281)" fill-opacity="1">0.39934</text><path fill="none" stroke="none"/><text fill="rgb(68,68,68)" stroke="none" font-family="helvetica" font-size="6pt" font-style="normal" font-weight="normal" text-decoration="normal" x="0" y="0" text-anchor="start" dominant-baseline="text-after-edge" transform="matrix(1, 0, 0, 1, 466.5741271972656, 255)" fill-opacity="1">0.4563</text><path fill="none" stroke="none"/><text fill="rgb(68,68,68)" stroke="none" font-family="helvetica" font-size="6pt" font-style="normal" font-weight="normal" text-decoration="normal" x="0" y="0" text-anchor="start" dominant-baseline="text-after-edge" transform="matrix(1, 0, 0, 1, 399.8893127441406, 147.9545440673828)" fill-opacity="1">0.38812</text><path fill="none" stroke="none"/><text fill="rgb(68,68,68)" stroke="none" font-family="helvetica" font-size="6pt" font-style="normal" font-weight="normal" text-decoration="normal" x="0" y="0" text-anchor="start" dominant-baseline="text-after-edge" transform="matrix(1, 0, 0, 1, 437.79931640625, 40.90909004211426)" fill-opacity="1">0.42688</text><path fill="none" stroke="none"/><path fill="none" stroke="none"/><path fill="none" stroke="rgb(0,0,0)" paint-order="fill" d="M 15.280701637268066 276.68182373046875 L 15.280701637268066 455.0909118652344 L 436.60400390625 455.0909118652344 L 436.60400390625 455.0909118652344" stroke-opacity="1" stroke-linejoin="bevel" stroke-miterlimit="10" stroke-width="2" stroke-dasharray="" clip-path="url(#OkCfsyikwSWb)"/><path fill="none" stroke="none"/><path fill="none" stroke="none"/><path fill="none" stroke="rgb(0,0,0)" paint-order="fill" d="M 15.280701637268066 276.68182373046875 L 15.280701637268066 294.5227355957031 L 78.71833801269531 294.5227355957031 L 78.71833801269531 294.5227355957031" stroke-opacity="1" stroke-linejoin="bevel" stroke-miterlimit="10" stroke-width="2" stroke-dasharray="" clip-path="url(#VRTfFKOkCXhT)"/><path fill="none" stroke="none"/><path fill="none" stroke="none"/><path fill="none" stroke="rgb(0,0,0)" paint-order="fill" d="M 78.71833801269531 294.5227355957031 L 78.71833801269531 348.0454406738281 L 405.8632507324219 348.0454406738281 L 405.8632507324219 348.0454406738281" stroke-opacity="1" stroke-linejoin="bevel" stroke-miterlimit="10" stroke-width="2" stroke-dasharray="" clip-path="url(#HLhVsElwxGyt)"/><path fill="none" stroke="none"/><path fill="none" stroke="none"/><path fill="none" stroke="rgb(0,0,0)" paint-order="fill" d="M 78.71833801269531 294.5227355957031 L 78.71833801269531 241 L 461.5741271972656 241 L 461.5741271972656 241" stroke-opacity="1" stroke-linejoin="bevel" stroke-miterlimit="10" stroke-width="2" stroke-dasharray="" clip-path="url(#UXyLHkPPJSks)"/><path fill="none" stroke="none"/><path fill="none" stroke="none"/><path fill="none" stroke="rgb(0,0,0)" paint-order="fill" d="M 15.280701637268066 276.68182373046875 L 15.280701637268066 80.43181610107422 L 67.67591857910156 80.43181610107422 L 67.67591857910156 80.43181610107422" stroke-opacity="1" stroke-linejoin="bevel" stroke-miterlimit="10" stroke-width="2" stroke-dasharray="" clip-path="url(#dBChehwZCQwm)"/><path fill="none" stroke="none"/><path fill="none" stroke="none"/><path fill="none" stroke="rgb(0,0,0)" paint-order="fill" d="M 67.67591857910156 80.43181610107422 L 67.67591857910156 133.9545440673828 L 394.8893127441406 133.9545440673828 L 394.8893127441406 133.9545440673828" stroke-opacity="1" stroke-linejoin="bevel" stroke-miterlimit="10" stroke-width="2" stroke-dasharray="" clip-path="url(#hkMgwokxCxXD)"/><path fill="none" stroke="none"/><path fill="none" stroke="none"/><path fill="none" stroke="rgb(0,0,0)" paint-order="fill" d="M 67.67591857910156 80.43181610107422 L 67.67591857910156 26.909090042114258 L 432.79931640625 26.909090042114258 L 432.79931640625 26.909090042114258" stroke-opacity="1" stroke-linejoin="bevel" stroke-miterlimit="10" stroke-width="2" stroke-dasharray="" clip-path="url(#HsaUGEbQeCJE)"/><path fill="none" stroke="rgb(0,0,0)" paint-order="fill" d="M 5.5 476.5 L 470.5 476.5" stroke-opacity="1" stroke-linejoin="bevel" stroke-miterlimit="10" stroke-dasharray=""/><path fill="none" stroke="rgb(0,0,0)" paint-order="fill" d="M 15.5 482.5 L 15.5 474.5 M 113.5 482.5 L 113.5 474.5 M 210.5 482.5 L 210.5 474.5 M 308.5 482.5 L 308.5 474.5 M 406.5 482.5 L 406.5 474.5" stroke-opacity="1" stroke-linejoin="bevel" stroke-miterlimit="10" stroke-dasharray=""/><path fill="none" stroke="rgb(0,0,0)" paint-order="fill" d="M 15.5 480.5 L 15.5 476.5 M 34.5 480.5 L 34.5 476.5 M 54.5 480.5 L 54.5 476.5 M 73.5 480.5 L 73.5 476.5 M 93.5 480.5 L 93.5 476.5 M 113.5 480.5 L 113.5 476.5 M 132.5 480.5 L 132.5 476.5 M 152.5 480.5 L 152.5 476.5 M 171.5 480.5 L 171.5 476.5 M 191.5 480.5 L 191.5 476.5 M 210.5 480.5 L 210.5 476.5 M 230.5 480.5 L 230.5 476.5 M 250.5 480.5 L 250.5 476.5 M 269.5 480.5 L 269.5 476.5 M 289.5 480.5 L 289.5 476.5 M 308.5 480.5 L 308.5 476.5 M 328.5 480.5 L 328.5 476.5 M 347.5 480.5 L 347.5 476.5 M 367.5 480.5 L 367.5 476.5 M 386.5 480.5 L 386.5 476.5 M 406.5 480.5 L 406.5 476.5 M 426.5 480.5 L 426.5 476.5 M 445.5 480.5 L 445.5 476.5 M 465.5 480.5 L 465.5 476.5" stroke-opacity="1" stroke-linejoin="bevel" stroke-miterlimit="10" stroke-dasharray=""/><text fill="rgb(68,68,68)" stroke="none" font-family="helvetica" font-size="11px" font-style="normal" font-weight="normal" text-decoration="normal" x="0" y="0" text-anchor="middle" dominant-baseline="hanging" transform="matrix(1, 0, 0, 1, 15.5, 487.5)" fill-opacity="1">0</text><text fill="rgb(68,68,68)" stroke="none" font-family="helvetica" font-size="11px" font-style="normal" font-weight="normal" text-decoration="normal" x="0" y="0" text-anchor="middle" dominant-baseline="hanging" transform="matrix(1, 0, 0, 1, 113.5, 487.5)" fill-opacity="1">0.1</text><text fill="rgb(68,68,68)" stroke="none" font-family="helvetica" font-size="11px" font-style="normal" font-weight="normal" text-decoration="normal" x="0" y="0" text-anchor="middle" dominant-baseline="hanging" transform="matrix(1, 0, 0, 1, 210.5, 487.5)" fill-opacity="1">0.2</text><text fill="rgb(68,68,68)" stroke="none" font-family="helvetica" font-size="11px" font-style="normal" font-weight="normal" text-decoration="normal" x="0" y="0" text-anchor="middle" dominant-baseline="hanging" transform="matrix(1, 0, 0, 1, 308.5, 487.5)" fill-opacity="1">0.3</text><text fill="rgb(68,68,68)" stroke="none" font-family="helvetica" font-size="11px" font-style="normal" font-weight="normal" text-decoration="normal" x="0" y="0" text-anchor="middle" dominant-baseline="hanging" transform="matrix(1, 0, 0, 1, 406.5, 487.5)" fill-opacity="1">0.4</text></svg>