<svg version="1.1" xmlns="http://www.w3.org/2000/svg" xmlns:xlink="http://www.w3.org/1999/xlink" width="500" height="500" style="width: 500px; height: 500px;"><defs><clipPath id="JZIZkXwWoQAA"><path fill="none" stroke="none" d=" M 5 5 L 470 5 L 470 474 L 5 474 L 5 5 Z"/></clipPath><clipPath id="HrtmqGTeceyf"><path fill="none" stroke="none" d=" M 5 5 L 470 5 L 470 474 L 5 474 L 5 5 Z"/></clipPath><clipPath id="uSdCcSLmGKJg"><path fill="none" stroke="none" d=" M 5 5 L 470 5 L 470 474 L 5 474 L 5 5 Z"/></clipPath><clipPath id="kgWEUHgUoqnU"><path fill="none" stroke="none" d=" M 5 5 L 470 5 L 470 474 L 5 474 L 5 5 Z"/></clipPath><clipPath id="ZHBEUTcCzIJO"><path fill="none" stroke="none" d=" M 5 5 L 470 5 L 470 474 L 5 474 L 5 5 Z"/></clipPath><clipPath id="MuXyxuMQkMZJ"><path fill="none" stroke="none" d=" M 5 5 L 470 5 L 470 474 L 5 474 L 5 5 Z"/></clipPath><clipPath id="TdBegMuKOzcx"><path fill="none" stroke="none" d=" M 5 5 L 470 5 L 470 474 L 5 474 L 5 5 Z"/></clipPath><clipPath id="WnRKlPxlEfkZ"><path fill="none" stroke="none" d=" M 5 5 L 470 5 L 470 474 L 5 474 L 5 5 Z"/></clipPath><clipPath id="opcphyqtmhbb"><path fill="none" stroke="none" d=" M 5 5 L 470 5 L 470 474 L 5 474 L 5 5 Z"/></clipPath><clipPath id="AAXOmKaNuutQ"><path fill="none" stroke="none" d=" M 5 5 L 470 5 L 470 474 L 5 474 L 5 5 Z"/></clipPath><clipPath id="nMvlUvtikuAh"><path fill="none" stroke="none" d=" M 5 5 L 470 5 L 470 474 L 5 474 L 5 5 Z"/></clipPath><clipPath id="ZwvTqxRRLJkG"><path fill="none" stroke="none" d=" M 5 5 L 470 5 L 470 474 L 5 474 L 5 5 Z"/></clipPath></defs><g transform="scale(1,1) translate(0.5,0.5)"><rect fill="#ffffff" stroke="none" x="0" y="0" width="500" height="500"/><rect fill="#FFFFFF" stroke="none" x="5" y="5" width="465" height="469"/><rect fill="#ffffff" stroke="none" x="5" y="5" width="465" height="469"/><g><rect fill="none" stroke="#e5e5e5" x="5" y="5" width="465" height="469" stroke-linejoin="bevel" stroke-miterlimit="10"/></g><g clip-path="url(#JZIZkXwWoQAA)"><g><g><path fill="none" stroke="#e5e5e5" paint-order="fill stroke markers" d=" M 15 474 L 15 5" stroke-linejoin="bevel" stroke-miterlimit="10"/><path fill="none" stroke="#e5e5e5" paint-order="fill stroke markers" d=" M 113 474 L 113 5" stroke-linejoin="bevel" stroke-miterlimit="10"/><path fill="none" stroke="#e5e5e5" paint-order="fill stroke markers" d=" M 210 474 L 210 5" stroke-linejoin="bevel" stroke-miterlimit="10"/><path fill="none" stroke="#e5e5e5" paint-order="fill stroke markers" d=" M 308 474 L 308 5" stroke-linejoin="bevel" stroke-miterlimit="10"/><path fill="none" stroke="#e5e5e5" paint-order="fill stroke markers" d=" M 406 474 L 406 5" stroke-linejoin="bevel" stroke-miterlimit="10"/></g></g></g><g clip-path="url(#HrtmqGTeceyf)"><g><g><path fill="none" stroke="#e5e5e5" paint-order="fill stroke markers" d=" M 5 453 L 470 453" stroke-linejoin="bevel" stroke-miterlimit="10"/><path fill="none" stroke="#e5e5e5" paint-order="fill stroke markers" d=" M 5 346 L 470 346" stroke-linejoin="bevel" stroke-miterlimit="10"/><path fill="none" stroke="#e5e5e5" paint-order="fill stroke markers" d=" M 5 240 L 470 240" stroke-linejoin="bevel" stroke-miterlimit="10"/><path fill="none" stroke="#e5e5e5" paint-order="fill stroke markers" d=" M 5 133 L 470 133" stroke-linejoin="bevel" stroke-miterlimit="10"/><path fill="none" stroke="#e5e5e5" paint-order="fill stroke markers" d=" M 5 26 L 470 26" stroke-linejoin="bevel" stroke-miterlimit="10"/></g></g></g><g clip-path="url(#uSdCcSLmGKJg)"><g><g fill="#444444"><path fill="" stroke="none" d=""/><g transform="translate(441.1039993605734,452.6818181818182) rotate(0,0,0)"><path fill="none" stroke="none"/><text fill="" stroke="none" font-family="helvetica" font-size="7pt" font-style="normal" font-weight="normal" text-decoration="normal" x="0" y="0" text-anchor="start" dominant-baseline="text-after-edge">E</text></g></g><g fill="#444444"><path fill="" stroke="none" d=""/><g transform="translate(410.36325316663374,346.0909090909091) rotate(0,0,0)"><path fill="none" stroke="none"/><text fill="" stroke="none" font-family="helvetica" font-size="7pt" font-style="normal" font-weight="normal" text-decoration="normal" x="0" y="0" text-anchor="start" dominant-baseline="text-after-edge">A</text></g></g><g fill="#444444"><path fill="" stroke="none" d=""/><g transform="translate(466.0741314105665,239.5) rotate(0,0,0)"><path fill="none" stroke="none"/><text fill="" stroke="none" font-family="helvetica" font-size="7pt" font-style="normal" font-weight="normal" text-decoration="normal" x="0" y="0" text-anchor="start" dominant-baseline="text-after-edge">B</text></g></g><g fill="#444444"><path fill="" stroke="none" d=""/><g transform="translate(399.3893055911961,132.90909090909093) rotate(0,0,0)"><path fill="none" stroke="none"/><text fill="" stroke="none" font-family="helvetica" font-size="7pt" font-style="normal" font-weight="normal" text-decoration="normal" x="0" y="0" text-anchor="start" dominant-baseline="text-after-edge">C</text></g></g><g fill="#444444"><path fill="" stroke="none" d=""/><g transform="translate(437.29930630634414,26.31818181818187) rotate(0,0,0)"><path fill="none" stroke="none"/><text fill="" stroke="none" font-family="helvetica" font-size="7pt" font-style="normal" font-weight="normal" text-decoration="normal" x="0" y="0" text-anchor="start" dominant-baseline="text-after-edge">D</text></g></g></g></g><g clip-path="url(#kgWEUHgUoqnU)"><g><g fill="#444444"><path fill="" stroke="none" d=""/><g transform="translate(441.1039993605734,466.6818181818182) rotate(0,0,0)"><path fill="none" stroke="none"/><text fill="" stroke="none" font-family="helvetica" font-size="6pt" font-style="normal" font-weight="normal" text-decoration="normal" x="0" y="0" text-anchor="start" dominant-baseline="text-after-edge">0.43077</text></g></g><g fill="#444444"><path fill="" stroke="none" d=""/><g transform="translate(410.36325316663374,360.0909090909091) rotate(0,0,0)"><path fill="none" stroke="none"/><text fill="" stroke="none" font-family="helvetica" font-size="6pt" font-style="normal" font-weight="normal" text-decoration="normal" x="0" y="0" text-anchor="start" dominant-baseline="text-after-edge">0.39934</text></g></g><g fill="#444444"><path fill="" stroke="none" d=""/><g transform="translate(466.0741314105665,253.5) rotate(0,0,0)"><path fill="none" stroke="none"/><text fill="" stroke="none" font-family="helvetica" font-size="6pt" font-style="normal" font-weight="normal" text-decoration="normal" x="0" y="0" text-anchor="start" dominant-baseline="text-after-edge">0.4563</text></g></g><g fill="#444444"><path fill="" stroke="none" d=""/><g transform="translate(399.3893055911961,146.90909090909093) rotate(0,0,0)"><path fill="none" stroke="none"/><text fill="" stroke="none" font-family="helvetica" font-size="6pt" font-style="normal" font-weight="normal" text-decoration="normal" x="0" y="0" text-anchor="start" dominant-baseline="text-after-edge">0.38812</text></g></g><g fill="#444444"><path fill="" stroke="none" d=""/><g transform="translate(437.29930630634414,40.31818181818187) rotate(0,0,0)"><path fill="none" stroke="none"/><text fill="" stroke="none" font-family="helvetica" font-size="6pt" font-style="normal" font-weight="normal" text-decoration="normal" x="0" y="0" text-anchor="start" dominant-baseline="text-after-edge">0.42688</text></g></g></g></g><g clip-path="url(#ZHBEUTcCzIJO)"><g><g><path fill="none" stroke="none"/><path fill="none" stroke="none"/><path fill="none" stroke="black" paint-order="fill stroke markers" d=" M 14.780701938892697 275.03030303030306 L 14.780701938892697 452.6818181818182 L 436.1039993605734 452.6818181818182 L 436.1039993605734 452.6818181818182" stroke-linejoin="bevel" stroke-miterlimit="10" stroke-width="2"/></g></g></g><g clip-path="url(#MuXyxuMQkMZJ)"><g><g><path fill="none" stroke="none"/><path fill="none" stroke="none"/><path fill="none" stroke="black" paint-order="fill stroke markers" d=" M 14.780701938892697 275.03030303030306 L 14.780701938892697 292.79545454545456 L 78.21833471455074 292.79545454545456 L 78.21833471455074 292.79545454545456" stroke-linejoin="bevel" stroke-miterlimit="10" stroke-width="2"/></g></g></g><g clip-path="url(#TdBegMuKOzcx)"><g><g><path fill="none" stroke="none"/><path fill="none" stroke="none"/><path fill="none" stroke="black" paint-order="fill stroke markers" d=" M 78.21833471455074 292.79545454545456 L 78.21833471455074 346.0909090909091 L 405.36325316663374 346.0909090909091 L 405.36325316663374 346.0909090909091" stroke-linejoin="bevel" stroke-miterlimit="10" stroke-width="2"/></g></g></g><g clip-path="url(#WnRKlPxlEfkZ)"><g><g><path fill="none" stroke="none"/><path fill="none" stroke="none"/><path fill="none" stroke="black" paint-order="fill stroke markers" d=" M 78.21833471455074 292.79545454545456 L 78.21833471455074 239.5 L 461.0741314105665 239.5 L 461.0741314105665 239.5" stroke-linejoin="bevel" stroke-miterlimit="10" stroke-width="2"/></g></g></g><g clip-path="url(#opcphyqtmhbb)"><g><g><path fill="none" stroke="none"/><path fill="none" stroke="none"/><path fill="none" stroke="black" paint-order="fill stroke markers" d=" M 14.780701938892697 275.03030303030306 L 14.780701938892697 79.61363636363637 L 67.17592222554087 79.61363636363637 L 67.17592222554087 79.61363636363637" stroke-linejoin="bevel" stroke-miterlimit="10" stroke-width="2"/></g></g></g><g clip-path="url(#AAXOmKaNuutQ)"><g><g><path fill="none" stroke="none"/><path fill="none" stroke="none"/><path fill="none" stroke="black" paint-order="fill stroke markers" d=" M 67.17592222554087 79.61363636363637 L 67.17592222554087 132.90909090909093 L 394.3893055911961 132.90909090909093 L 394.3893055911961 132.90909090909093" stroke-linejoin="bevel" stroke-miterlimit="10" stroke-width="2"/></g></g></g><g clip-path="url(#nMvlUvtikuAh)"><g><g><path fill="none" stroke="none"/><path fill="none" stroke="none"/><path fill="none" stroke="black" paint-order="fill stroke markers" d=" M 67.17592222554087 79.61363636363637 L 67.17592222554087 26.31818181818187 L 432.29930630634414 26.31818181818187 L 432.29930630634414 26.31818181818187" stroke-linejoin="bevel" stroke-miterlimit="10" stroke-width="2"/></g></g></g><g/><g/><g><g fill="#444444"><path fill="none" stroke="black" paint-order="fill stroke markers" d=" M 5 474 L 470 474" stroke-linejoin="bevel" stroke-miterlimit="10"/><path fill="none" stroke="black" paint-order="fill stroke markers" d=" M 15 480 L 15 472" stroke-linejoin="bevel" stroke-miterlimit="10"/><path fill="none" stroke="black" paint-order="fill stroke markers" d=" M 113 480 L 113 472" stroke-linejoin="bevel" stroke-miterlimit="10"/><path fill="none" stroke="black" paint-order="fill stroke markers" d=" M 210 480 L 210 472" stroke-linejoin="bevel" stroke-miterlimit="10"/><path fill="none" stroke="black" paint-order="fill stroke markers" d=" M 308 480 L 308 472" stroke-linejoin="bevel" stroke-miterlimit="10"/><path fill="none" stroke="black" paint-order="fill stroke markers" d=" M 406 480 L 406 472" stroke-linejoin="bevel" stroke-miterlimit="10"/><path fill="none" stroke="black" paint-order="fill stroke markers" d=" M 15 478 L 15 474" stroke-linejoin="bevel" stroke-miterlimit="10"/><path fill="none" stroke="black" paint-order="fill stroke markers" d=" M 34 478 L 34 474" stroke-linejoin="bevel" stroke-miterlimit="10"/><path fill="none" stroke="black" paint-order="fill stroke markers" d=" M 54 478 L 54 474" stroke-linejoin="bevel" stroke-miterlimit="10"/><path fill="none" stroke="black" paint-order="fill stroke markers" d=" M 73 478 L 73 474" stroke-linejoin="bevel" stroke-miterlimit="10"/><path fill="none" stroke="black" paint-order="fill stroke markers" d=" M 93 478 L 93 474" stroke-linejoin="bevel" stroke-miterlimit="10"/><path fill="none" stroke="black" paint-order="fill stroke markers" d=" M 113 478 L 113 474" stroke-linejoin="bevel" stroke-miterlimit="10"/><path fill="none" stroke="black" paint-order="fill stroke markers" d=" M 132 478 L 132 474" stroke-linejoin="bevel" stroke-miterlimit="10"/><path fill="none" stroke="black" paint-order="fill stroke markers" d=" M 152 478 L 152 474" stroke-linejoin="bevel" stroke-miterlimit="10"/><path fill="none" stroke="black" paint-order="fill stroke markers" d=" M 171 478 L 171 474" stroke-linejoin="bevel" stroke-miterlimit="10"/><path fill="none" stroke="black" paint-order="fill stroke markers" d=" M 191 478 L 191 474" stroke-linejoin="bevel" stroke-miterlimit="10"/><path fill="none" stroke="black" paint-order="fill stroke markers" d=" M 210 478 L 210 474" stroke-linejoin="bevel" stroke-miterlimit="10"/><path fill="none" stroke="black" paint-order="fill stroke markers" d=" M 230 478 L 230 474" stroke-linejoin="bevel" stroke-miterlimit="10"/><path fill="none" stroke="black" paint-order="fill stroke markers" d=" M 250 478 L 250 474" stroke-linejoin="bevel" stroke-miterlimit="10"/><path fill="none" stroke="black" paint-order="fill stroke markers" d=" M 269 478 L 269 474" stroke-linejoin="bevel" stroke-miterlimit="10"/><path fill="none" stroke="black" paint-order="fill stroke markers" d=" M 289 478 L 289 474" stroke-linejoin="bevel" stroke-miterlimit="10"/><path fill="none" stroke="black" paint-order="fill stroke markers" d=" M 308 478 L 308 474" stroke-linejoin="bevel" stroke-miterlimit="10"/><path fill="none" stroke="black" paint-order="fill stroke markers" d=" M 328 478 L 328 474" stroke-linejoin="bevel" stroke-miterlimit="10"/><path fill="none" stroke="black" paint-order="fill stroke markers" d=" M 347 478 L 347 474" stroke-linejoin="bevel" stroke-miterlimit="10"/><path fill="none" stroke="black" paint-order="fill stroke markers" d=" M 367 478 L 367 474" stroke-linejoin="bevel" stroke-miterlimit="10"/><path fill="none" stroke="black" paint-order="fill stroke markers" d=" M 386 478 L 386 474" stroke-linejoin="bevel" stroke-miterlimit="10"/><path fill="none" stroke="black" paint-order="fill stroke markers" d=" M 406 478 L 406 474" stroke-linejoin="bevel" stroke-miterlimit="10"/><path fill="none" stroke="black" paint-order="fill stroke markers" d=" M 426 478 L 426 474" stroke-linejoin="bevel" stroke-miterlimit="10"/><path fill="none" stroke="black" paint-order="fill stroke markers" d=" M 445 478 L 445 474" stroke-linejoin="bevel" stroke-miterlimit="10"/><path fill="" stroke="black" paint-order="fill stroke markers" d=" M 465 478 L 465 474" stroke-linejoin="bevel" stroke-miterlimit="10"/><g transform="translate(15,485) rotate(0,0,0)"><text fill="" stroke="none" font-family="helvetica" font-size="8pt" font-style="normal" font-weight="normal" text-decoration="normal" x="0" y="0" text-anchor="middle" dominant-baseline="hanging">0</text><g transform="rotate(0,0,0) translate(-15,-485) translate(113,485) rotate(0,0,0)"><text fill="" stroke="none" font-family="helvetica" font-size="8pt" font-style="normal" font-weight="normal" text-decoration="normal" x="0" y="0" text-anchor="middle" dominant-baseline="hanging">0.1</text><g transform="rotate(0,0,0) translate(-113,-485) translate(210,485) rotate(0,0,0)"><text fill="" stroke="none" font-family="helvetica" font-size="8pt" font-style="normal" font-weight="normal" text-decoration="normal" x="0" y="0" text-anchor="middle" dominant-baseline="hanging">0.2</text><g transform="rotate(0,0,0) translate(-210,-485) translate(308,485) rotate(0,0,0)"><text fill="" stroke="none" font-family="helvetica" font-size="8pt" font-style="normal" font-weight="normal" text-decoration="normal" x="0" y="0" text-anchor="middle" dominant-baseline="hanging">0.3</text><g transform="rotate(0,0,0) translate(-308,-485) translate(406,485) rotate(0,0,0)"><text fill="" stroke="none" font-family="helvetica" font-size="8pt" font-style="normal" font-weight="normal" text-decoration="normal" x="0" y="0" text-anchor="middle" dominant-baseline="hanging">0.4</text><g transform="rotate(0,0,0) translate(-406,-485)"/></g></g></g></g></g></g></g><g/><g clip-path="url(#ZwvTqxRRLJkG)"><g/></g></g></svg>